<svg version="1.1" id="Layer_1" xmlns="http://www.w3.org/2000/svg" xmlns:xlink="http://www.w3.org/1999/xlink" x="0px" y="0px"
	 width="100%" viewBox="0 0 866 866" enable-background="new 0 0 866 866" xml:space="preserve">
<path fill="#FEFFFF" opacity="1.000000" stroke="none" 
	d="
M510.000000,867.000000 
	C340.000061,867.000000 170.500107,867.000000 1.000114,867.000000 
	C1.000076,578.333496 1.000076,289.666931 1.000038,1.000307 
	C289.666443,1.000205 578.332886,1.000205 866.999512,1.000102 
	C866.999634,289.666351 866.999634,578.332703 866.999817,866.999512 
	C748.166687,867.000000 629.333313,867.000000 510.000000,867.000000 
M440.780273,549.217224 
	C447.860596,534.683777 448.511414,519.032166 448.541870,503.332916 
	C448.627228,459.336243 448.571289,415.339294 448.567596,371.342438 
	C448.567474,369.676300 448.534210,368.010162 448.511047,366.344055 
	C448.463257,362.901306 446.897552,361.176758 443.272766,361.267731 
	C438.276550,361.393158 433.274384,361.276947 428.274750,361.268280 
	C420.199738,361.254303 420.204865,361.256622 418.820618,369.000854 
	C418.779785,369.229187 418.364014,369.390503 417.806366,369.836121 
	C406.862000,362.617950 394.729431,358.877136 381.384064,358.480408 
	C358.826904,357.809845 340.515015,365.725128 328.065948,384.800171 
	C310.866180,411.154480 309.369690,439.634491 319.913483,468.534454 
	C335.572968,511.456360 379.071960,518.185486 410.326691,503.626953 
	C413.101532,502.334442 415.679596,500.619568 418.924316,498.773590 
	C418.924316,507.843170 419.599060,516.183411 418.747406,524.364685 
	C417.762238,533.828735 414.339569,542.867432 405.937256,548.299744 
	C393.228119,556.516541 379.279358,558.007751 365.479156,551.641968 
	C358.817749,548.569153 352.943481,543.572815 347.158722,538.895874 
	C343.516937,535.951538 340.847260,535.957825 337.765167,539.216064 
	C333.991394,543.205566 330.206390,547.191284 326.268036,551.015686 
	C323.436218,553.765503 323.819580,555.990967 326.517120,558.576416 
	C345.759338,577.019348 368.259430,585.404785 394.969604,581.008850 
	C414.974213,577.716492 431.023682,568.655701 440.780273,549.217224 
M601.059082,486.500000 
	C601.059326,474.339081 601.060486,462.178192 601.059692,450.017273 
	C601.057983,422.696869 601.061157,395.376434 601.048401,368.056030 
	C601.045410,361.715302 600.687134,361.373474 594.170959,361.292450 
	C590.506470,361.246857 586.841370,361.249115 583.176514,361.246796 
	C573.512085,361.240723 573.512085,361.244446 571.169312,370.020264 
	C560.736084,363.841705 549.892395,359.608368 537.584045,358.641327 
	C510.495758,356.513153 489.066833,368.255768 476.344482,392.052887 
	C466.680206,410.129822 465.460785,429.343475 467.366425,448.874573 
	C469.004730,465.666077 476.154938,480.482178 487.763580,492.960968 
	C507.107208,513.754517 545.343506,515.356995 566.800415,501.369293 
	C568.224548,500.440918 569.779785,499.713623 571.703735,498.656738 
	C571.703735,507.190796 572.285278,514.884949 571.557373,522.453247 
	C570.636108,532.031677 567.800964,541.203491 559.620300,547.378784 
	C546.596375,557.210144 526.996338,558.082764 513.011108,549.315063 
	C507.970428,546.154907 503.419220,542.175842 498.830078,538.348206 
	C496.197205,536.152222 493.888245,535.805847 491.406769,538.288818 
	C487.051056,542.647278 482.649109,546.962646 478.400574,551.423645 
	C476.426849,553.495972 476.026886,555.970947 478.565369,557.929138 
	C485.397369,563.199463 491.924347,569.026611 499.308899,573.384827 
	C513.772461,581.920959 529.675659,583.158936 546.162537,581.127686 
	C574.153381,577.678955 594.616699,559.576660 598.806946,531.782654 
	C600.999512,517.239014 600.399536,502.274445 601.059082,486.500000 
M81.018456,347.500000 
	C81.020470,329.006714 80.912727,310.512329 81.101784,292.020966 
	C81.148972,287.405823 79.512199,285.743774 74.967506,286.002045 
	C69.985626,286.285187 64.974678,286.071136 59.976498,286.050201 
	C51.990299,286.016754 51.992550,286.008545 51.993305,294.077515 
	C51.999611,361.221100 52.004967,428.364685 52.010952,495.508270 
	C52.011158,497.840698 52.101074,500.176971 51.996758,502.504639 
	C51.843430,505.926056 53.400993,507.278625 56.787285,507.206665 
	C62.948963,507.075653 69.122353,506.987671 75.277397,507.227417 
	C79.544922,507.393646 81.173706,505.961243 81.096085,501.503357 
	C80.864090,488.178772 80.987129,474.847107 81.073990,461.518890 
	C81.085426,459.764709 81.110893,457.492218 82.129562,456.356354 
	C85.752304,452.316925 89.807381,448.665253 94.445671,444.137604 
	C95.192909,445.453735 95.519150,446.243439 96.026764,446.890991 
	C110.706863,465.618561 125.315445,484.403992 140.221558,502.950226 
	C141.955292,505.107330 145.287094,507.002838 147.990860,507.167572 
	C156.442627,507.682526 164.949997,507.383759 173.431946,507.210724 
	C174.907104,507.180634 176.363464,506.229034 177.828506,505.703094 
	C177.218430,504.054688 176.946869,502.152191 175.935608,500.804901 
	C172.741226,496.548981 169.250153,492.516846 165.908951,488.369873 
	C149.835342,468.419922 133.806641,448.433655 117.670013,428.534882 
	C115.325142,425.643341 115.137985,423.447235 118.128937,420.941437 
	C120.803139,418.700958 123.174057,416.099823 125.694374,413.674011 
	C141.292130,398.661072 156.935043,383.694397 172.422440,368.568481 
	C173.748642,367.273285 174.050949,364.929688 174.828903,363.073120 
	C173.074158,362.477112 171.330582,361.408112 169.562744,361.366364 
	C161.569931,361.177490 153.557953,361.026031 145.579788,361.414459 
	C142.818802,361.548889 139.419525,362.553680 137.531662,364.404938 
	C123.742836,377.926453 110.264320,391.764404 96.688599,405.503235 
	C91.880035,410.369629 87.073586,415.238098 82.266182,420.105652 
	C81.850273,419.849030 81.434372,419.592438 81.018471,419.335815 
	C81.018471,395.723877 81.018471,372.111938 81.018456,347.500000 
M726.500183,444.813812 
	C752.827698,444.811432 779.155273,444.804443 805.482788,444.809570 
	C813.374756,444.811127 813.627563,444.848480 814.320251,436.846741 
	C816.563843,410.928345 807.940002,389.408325 787.629395,372.900391 
	C773.563293,361.467834 757.125183,358.049194 739.398499,358.901123 
	C726.018005,359.544189 713.817993,363.567627 703.207458,371.609680 
	C681.246399,388.254547 672.278137,411.060181 673.541443,438.018890 
	C674.624939,461.138367 683.973511,480.481262 702.337769,494.977722 
	C731.827942,518.256897 775.563354,513.856018 802.827515,494.291748 
	C805.890991,492.093475 806.110413,489.948669 803.557190,487.347626 
	C799.238892,482.948364 794.845032,478.620819 790.612610,474.140625 
	C788.295776,471.688232 786.179810,471.261658 783.282593,473.330017 
	C775.660156,478.771912 767.040405,481.810913 757.737183,482.458466 
	C738.750000,483.780029 722.395203,478.661316 711.389099,461.985535 
	C708.142029,457.065613 705.742188,451.612854 706.130798,444.813354 
	C712.903625,444.813354 719.201965,444.813354 726.500183,444.813812 
M224.239426,420.771271 
	C218.148331,422.953522 211.786606,424.589355 206.027359,427.441620 
	C196.560852,432.130005 188.945847,439.009827 185.107605,449.271606 
	C176.227478,473.013275 188.520248,498.803528 213.289902,507.038635 
	C229.509399,512.431152 245.740295,511.580933 261.315887,503.910675 
	C263.497894,502.836151 265.664001,501.729340 268.518250,500.295471 
	C268.046997,507.666931 272.505768,507.329315 277.044861,507.192749 
	C282.370544,507.032593 287.707977,507.014679 293.033203,507.173279 
	C296.697937,507.282440 298.090881,505.731567 298.077362,502.140930 
	C297.959595,470.827301 298.440033,439.500610 297.673309,408.204010 
	C297.167908,387.574188 287.250366,372.143127 267.867493,363.543121 
	C256.100281,358.322113 243.867920,357.412079 231.225510,358.984131 
	C216.374283,360.830841 202.886108,365.999939 190.695633,374.634827 
	C188.171844,376.422485 187.120071,378.519348 189.139603,381.377045 
	C192.212158,385.724792 195.333160,390.042114 198.271439,394.479736 
	C200.711258,398.164459 203.086365,398.576141 206.863846,395.891449 
	C218.822937,387.392151 232.306702,383.804352 246.938980,384.838043 
	C258.521545,385.656281 268.642639,396.576691 269.141693,408.102600 
	C269.321136,412.246643 267.629944,413.406738 263.837311,413.986237 
	C250.870026,415.967651 237.960297,418.325836 224.239426,420.771271 
M624.965393,336.500000 
	C624.963196,345.994141 624.958679,355.488281 624.959290,364.982422 
	C624.962219,410.287140 625.024109,455.592072 624.884644,500.896332 
	C624.870056,505.624725 626.206238,507.556213 631.105957,507.236298 
	C636.413513,506.889740 641.760864,507.164612 647.090759,507.146637 
	C653.980652,507.123383 654.048767,507.048859 654.049194,500.154236 
	C654.053040,435.195221 654.056641,370.236176 654.057251,305.277161 
	C654.057312,300.446991 654.016296,295.616730 654.029724,290.786652 
	C654.038818,287.491669 652.588989,285.963287 649.150085,286.046906 
	C642.990784,286.196716 636.821655,286.234741 630.664124,286.058380 
	C626.328003,285.934143 624.844482,287.747925 624.896912,292.028229 
	C625.074646,306.516937 624.965027,321.009125 624.965393,336.500000 
z"/>
<path fill="#27BDF9" opacity="1.000000" stroke="none" 
	d="
M440.598297,549.546204 
	C431.023682,568.655701 414.974213,577.716492 394.969604,581.008850 
	C368.259430,585.404785 345.759338,577.019348 326.517120,558.576416 
	C323.819580,555.990967 323.436218,553.765503 326.268036,551.015686 
	C330.206390,547.191284 333.991394,543.205566 337.765167,539.216064 
	C340.847260,535.957825 343.516937,535.951538 347.158722,538.895874 
	C352.943481,543.572815 358.817749,548.569153 365.479156,551.641968 
	C379.279358,558.007751 393.228119,556.516541 405.937256,548.299744 
	C414.339569,542.867432 417.762238,533.828735 418.747406,524.364685 
	C419.599060,516.183411 418.924316,507.843170 418.924316,498.773590 
	C415.679596,500.619568 413.101532,502.334442 410.326691,503.626953 
	C379.071960,518.185486 335.572968,511.456360 319.913483,468.534454 
	C309.369690,439.634491 310.866180,411.154480 328.065948,384.800171 
	C340.515015,365.725128 358.826904,357.809845 381.384064,358.480408 
	C394.729431,358.877136 406.862000,362.617950 417.806366,369.836121 
	C418.364014,369.390503 418.779785,369.229187 418.820618,369.000854 
	C420.204865,361.256622 420.199738,361.254303 428.274750,361.268280 
	C433.274384,361.276947 438.276550,361.393158 443.272766,361.267731 
	C446.897552,361.176758 448.463257,362.901306 448.511047,366.344055 
	C448.534210,368.010162 448.567474,369.676300 448.567596,371.342438 
	C448.571289,415.339294 448.627228,459.336243 448.541870,503.332916 
	C448.511414,519.032166 447.860596,534.683777 440.598297,549.546204 
M378.830383,387.127167 
	C358.349487,390.121948 349.694153,398.152069 345.657806,418.473358 
	C343.158630,431.055908 343.486023,443.671509 347.141083,456.012756 
	C350.366272,466.902618 356.639496,475.844574 367.631866,479.616882 
	C382.018341,484.553955 396.340454,483.100861 409.273651,474.841949 
	C416.456757,470.255005 420.351349,463.466919 419.971985,454.228241 
	C419.432373,441.088440 419.523071,427.905731 419.845062,414.753601 
	C420.058960,406.015503 416.154449,399.758636 409.608521,394.785156 
	C400.770416,388.070099 390.387207,387.016937 378.830383,387.127167 
z"/>
<path fill="#27BEF9" opacity="1.000000" stroke="none" 
	d="
M601.059937,487.000000 
	C600.399536,502.274445 600.999512,517.239014 598.806946,531.782654 
	C594.616699,559.576660 574.153381,577.678955 546.162537,581.127686 
	C529.675659,583.158936 513.772461,581.920959 499.308899,573.384827 
	C491.924347,569.026611 485.397369,563.199463 478.565369,557.929138 
	C476.026886,555.970947 476.426849,553.495972 478.400574,551.423645 
	C482.649109,546.962646 487.051056,542.647278 491.406769,538.288818 
	C493.888245,535.805847 496.197205,536.152222 498.830078,538.348206 
	C503.419220,542.175842 507.970428,546.154907 513.011108,549.315063 
	C526.996338,558.082764 546.596375,557.210144 559.620300,547.378784 
	C567.800964,541.203491 570.636108,532.031677 571.557373,522.453247 
	C572.285278,514.884949 571.703735,507.190796 571.703735,498.656738 
	C569.779785,499.713623 568.224548,500.440918 566.800415,501.369293 
	C545.343506,515.356995 507.107208,513.754517 487.763580,492.960968 
	C476.154938,480.482178 469.004730,465.666077 467.366425,448.874573 
	C465.460785,429.343475 466.680206,410.129822 476.344482,392.052887 
	C489.066833,368.255768 510.495758,356.513153 537.584045,358.641327 
	C549.892395,359.608368 560.736084,363.841705 571.169312,370.020264 
	C573.512085,361.244446 573.512085,361.240723 583.176514,361.246796 
	C586.841370,361.249115 590.506470,361.246857 594.170959,361.292450 
	C600.687134,361.373474 601.045410,361.715302 601.048401,368.056030 
	C601.061157,395.376434 601.057983,422.696869 601.059692,450.017273 
	C601.060486,462.178192 601.059326,474.339081 601.059937,487.000000 
M508.551392,471.945587 
	C522.352295,487.359222 550.410645,482.639313 561.301697,474.813324 
	C568.336853,469.758087 572.570557,463.202576 572.125366,453.708679 
	C571.510315,440.591064 571.645874,427.409821 572.126160,414.280212 
	C572.404297,406.677155 569.379089,401.116943 564.058594,396.392059 
	C554.053589,387.507050 541.753052,386.279388 529.350342,387.358154 
	C512.398865,388.832581 502.754120,398.029205 498.568298,414.610870 
	C495.833405,425.444885 495.844513,436.394836 497.316559,447.281464 
	C498.526031,456.226654 501.238464,464.826294 508.551392,471.945587 
z"/>
<path fill="#27BDF9" opacity="1.000000" stroke="none" 
	d="
M81.018463,348.000000 
	C81.018471,372.111938 81.018471,395.723877 81.018471,419.335815 
	C81.434372,419.592438 81.850273,419.849030 82.266182,420.105652 
	C87.073586,415.238098 91.880035,410.369629 96.688599,405.503235 
	C110.264320,391.764404 123.742836,377.926453 137.531662,364.404938 
	C139.419525,362.553680 142.818802,361.548889 145.579788,361.414459 
	C153.557953,361.026031 161.569931,361.177490 169.562744,361.366364 
	C171.330582,361.408112 173.074158,362.477112 174.828903,363.073120 
	C174.050949,364.929688 173.748642,367.273285 172.422440,368.568481 
	C156.935043,383.694397 141.292130,398.661072 125.694374,413.674011 
	C123.174057,416.099823 120.803139,418.700958 118.128937,420.941437 
	C115.137985,423.447235 115.325142,425.643341 117.670013,428.534882 
	C133.806641,448.433655 149.835342,468.419922 165.908951,488.369873 
	C169.250153,492.516846 172.741226,496.548981 175.935608,500.804901 
	C176.946869,502.152191 177.218430,504.054688 177.828506,505.703064 
	C176.363464,506.229034 174.907104,507.180634 173.431946,507.210724 
	C164.949997,507.383759 156.442627,507.682526 147.990860,507.167572 
	C145.287094,507.002838 141.955292,505.107330 140.221558,502.950226 
	C125.315445,484.403992 110.706863,465.618561 96.026764,446.890991 
	C95.519150,446.243439 95.192909,445.453735 94.445671,444.137604 
	C89.807381,448.665253 85.752304,452.316925 82.129562,456.356354 
	C81.110893,457.492218 81.085426,459.764709 81.073990,461.518890 
	C80.987129,474.847107 80.864090,488.178772 81.096085,501.503357 
	C81.173706,505.961243 79.544922,507.393646 75.277397,507.227417 
	C69.122353,506.987671 62.948963,507.075653 56.787285,507.206665 
	C53.400993,507.278625 51.843430,505.926056 51.996758,502.504639 
	C52.101074,500.176971 52.011158,497.840698 52.010952,495.508270 
	C52.004967,428.364685 51.999611,361.221100 51.993305,294.077515 
	C51.992550,286.008545 51.990299,286.016754 59.976498,286.050201 
	C64.974678,286.071136 69.985626,286.285187 74.967506,286.002045 
	C79.512199,285.743774 81.148972,287.405823 81.101784,292.020966 
	C80.912727,310.512329 81.020470,329.006714 81.018463,348.000000 
z"/>
<path fill="#28BEF9" opacity="1.000000" stroke="none" 
	d="
M726.000244,444.813599 
	C719.201965,444.813354 712.903625,444.813354 706.130798,444.813354 
	C705.742188,451.612854 708.142029,457.065613 711.389099,461.985535 
	C722.395203,478.661316 738.750000,483.780029 757.737183,482.458466 
	C767.040405,481.810913 775.660156,478.771912 783.282593,473.330017 
	C786.179810,471.261658 788.295776,471.688232 790.612610,474.140625 
	C794.845032,478.620819 799.238892,482.948364 803.557190,487.347626 
	C806.110413,489.948669 805.890991,492.093475 802.827515,494.291748 
	C775.563354,513.856018 731.827942,518.256897 702.337769,494.977722 
	C683.973511,480.481262 674.624939,461.138367 673.541443,438.018890 
	C672.278137,411.060181 681.246399,388.254547 703.207458,371.609680 
	C713.817993,363.567627 726.018005,359.544189 739.398499,358.901123 
	C757.125183,358.049194 773.563293,361.467834 787.629395,372.900391 
	C807.940002,389.408325 816.563843,410.928345 814.320251,436.846741 
	C813.627563,444.848480 813.374756,444.811127 805.482788,444.809570 
	C779.155273,444.804443 752.827698,444.811432 726.000244,444.813599 
M726.135437,388.533752 
	C714.810608,395.424896 707.600708,405.070129 705.431946,418.521698 
	C731.610046,418.521698 757.149231,418.521698 782.994690,418.521698 
	C783.123718,405.680298 776.611267,396.999878 767.029358,390.445160 
	C754.218018,381.681305 740.614258,381.696381 726.135437,388.533752 
z"/>
<path fill="#27BDF9" opacity="1.000000" stroke="none" 
	d="
M224.634018,420.655762 
	C237.960297,418.325836 250.870026,415.967651 263.837311,413.986237 
	C267.629944,413.406738 269.321136,412.246643 269.141693,408.102600 
	C268.642639,396.576691 258.521545,385.656281 246.938980,384.838043 
	C232.306702,383.804352 218.822937,387.392151 206.863846,395.891449 
	C203.086365,398.576141 200.711258,398.164459 198.271439,394.479736 
	C195.333160,390.042114 192.212158,385.724792 189.139603,381.377045 
	C187.120071,378.519348 188.171844,376.422485 190.695633,374.634827 
	C202.886108,365.999939 216.374283,360.830841 231.225510,358.984131 
	C243.867920,357.412079 256.100281,358.322113 267.867493,363.543121 
	C287.250366,372.143127 297.167908,387.574188 297.673309,408.204010 
	C298.440033,439.500610 297.959595,470.827301 298.077362,502.140930 
	C298.090881,505.731567 296.697937,507.282440 293.033203,507.173279 
	C287.707977,507.014679 282.370544,507.032593 277.044861,507.192749 
	C272.505768,507.329315 268.046997,507.666931 268.518250,500.295471 
	C265.664001,501.729340 263.497894,502.836151 261.315887,503.910675 
	C245.740295,511.580933 229.509399,512.431152 213.289902,507.038635 
	C188.520248,498.803528 176.227478,473.013275 185.107605,449.271606 
	C188.945847,439.009827 196.560852,432.130005 206.027359,427.441620 
	C211.786606,424.589355 218.148331,422.953522 224.634018,420.655762 
M241.268295,484.059570 
	C250.014435,483.522766 257.714325,480.189789 264.800598,475.233551 
	C267.538330,473.318726 269.089691,470.992462 268.927979,467.320282 
	C268.649719,461.003265 268.918335,454.662384 268.947266,448.331482 
	C268.960510,445.439789 268.949524,442.547974 268.949524,439.308807 
	C261.084686,440.333588 254.137131,441.011078 247.275055,442.187256 
	C237.432831,443.874207 227.558975,445.677979 219.027802,451.410675 
	C208.797791,458.285004 208.248688,470.499756 217.679611,478.257538 
	C224.354492,483.748230 232.233307,484.279480 241.268295,484.059570 
z"/>
<path fill="#27BCF8" opacity="1.000000" stroke="none" 
	d="
M624.965332,336.000000 
	C624.965027,321.009125 625.074646,306.516937 624.896912,292.028229 
	C624.844482,287.747925 626.328003,285.934143 630.664124,286.058380 
	C636.821655,286.234741 642.990784,286.196716 649.150085,286.046906 
	C652.588989,285.963287 654.038818,287.491669 654.029724,290.786652 
	C654.016296,295.616730 654.057312,300.446991 654.057251,305.277161 
	C654.056641,370.236176 654.053040,435.195221 654.049194,500.154236 
	C654.048767,507.048859 653.980652,507.123383 647.090759,507.146637 
	C641.760864,507.164612 636.413513,506.889740 631.105957,507.236298 
	C626.206238,507.556213 624.870056,505.624725 624.884644,500.896332 
	C625.024109,455.592072 624.962219,410.287140 624.959290,364.982422 
	C624.958679,355.488281 624.963196,345.994141 624.965332,336.000000 
z"/>
<path fill="#F9FEFE" opacity="1.000000" stroke="none" 
	d="
M379.290710,387.121155 
	C390.387207,387.016937 400.770416,388.070099 409.608521,394.785156 
	C416.154449,399.758636 420.058960,406.015503 419.845062,414.753601 
	C419.523071,427.905731 419.432373,441.088440 419.971985,454.228241 
	C420.351349,463.466919 416.456757,470.255005 409.273651,474.841949 
	C396.340454,483.100861 382.018341,484.553955 367.631866,479.616882 
	C356.639496,475.844574 350.366272,466.902618 347.141083,456.012756 
	C343.486023,443.671509 343.158630,431.055908 345.657806,418.473358 
	C349.694153,398.152069 358.349487,390.121948 379.290710,387.121155 
z"/>
<path fill="#F9FEFE" opacity="1.000000" stroke="none" 
	d="
M508.305634,471.687622 
	C501.238464,464.826294 498.526031,456.226654 497.316559,447.281464 
	C495.844513,436.394836 495.833405,425.444885 498.568298,414.610870 
	C502.754120,398.029205 512.398865,388.832581 529.350342,387.358154 
	C541.753052,386.279388 554.053589,387.507050 564.058594,396.392059 
	C569.379089,401.116943 572.404297,406.677155 572.126160,414.280212 
	C571.645874,427.409821 571.510315,440.591064 572.125366,453.708679 
	C572.570557,463.202576 568.336853,469.758087 561.301697,474.813324 
	C550.410645,482.639313 522.352295,487.359222 508.305634,471.687622 
z"/>
<path fill="#F4FEFE" opacity="1.000000" stroke="none" 
	d="
M726.465088,388.361023 
	C740.614258,381.696381 754.218018,381.681305 767.029358,390.445160 
	C776.611267,396.999878 783.123718,405.680298 782.994690,418.521698 
	C757.149231,418.521698 731.610046,418.521698 705.431946,418.521698 
	C707.600708,405.070129 714.810608,395.424896 726.465088,388.361023 
z"/>
<path fill="#F5FEFE" opacity="1.000000" stroke="none" 
	d="
M240.800415,484.074860 
	C232.233307,484.279480 224.354492,483.748230 217.679611,478.257538 
	C208.248688,470.499756 208.797791,458.285004 219.027802,451.410675 
	C227.558975,445.677979 237.432831,443.874207 247.275055,442.187256 
	C254.137131,441.011078 261.084686,440.333588 268.949524,439.308807 
	C268.949524,442.547974 268.960510,445.439789 268.947266,448.331482 
	C268.918335,454.662384 268.649719,461.003265 268.927979,467.320282 
	C269.089691,470.992462 267.538330,473.318726 264.800598,475.233551 
	C257.714325,480.189789 250.014435,483.522766 240.800415,484.074860 
z"/>
</svg>