<svg version="1.1" id="Layer_1" xmlns="http://www.w3.org/2000/svg" xmlns:xlink="http://www.w3.org/1999/xlink" x="0px" y="0px"
	 width="100%" viewBox="0 0 866 650" enable-background="new 0 0 866 650" xml:space="preserve">
<path fill="#FEFFFF" opacity="1.000000" stroke="none" 
	d="
M539.000000,651.000000 
	C359.333344,651.000000 180.166672,651.000000 1.000000,651.000000 
	C1.000000,434.333344 1.000000,217.666672 1.000000,1.000000 
	C289.666656,1.000000 578.333313,1.000000 867.000000,1.000000 
	C867.000000,217.666672 867.000000,434.333344 867.000000,651.000000 
	C757.833313,651.000000 648.666687,651.000000 539.000000,651.000000 
M571.337158,464.873138 
	C589.303833,454.456818 597.878723,437.844177 599.789734,418.121857 
	C601.374512,401.766296 600.942078,385.194458 601.008118,368.716858 
	C601.153625,332.390594 600.978210,296.063019 601.134521,259.736847 
	C601.155029,254.968445 599.663757,252.982285 594.842590,253.233124 
	C590.356445,253.466537 585.847229,253.245667 581.348145,253.242218 
	C572.992065,253.235794 572.997192,253.241882 571.718628,261.187439 
	C571.685181,261.394928 571.236023,261.535583 570.772095,261.847900 
	C560.362976,255.528229 549.259277,251.534897 536.741028,250.594040 
	C510.860962,248.648895 489.309082,260.325897 476.842255,283.051422 
	C466.808411,301.341888 465.377563,320.880066 467.362610,340.775482 
	C469.035797,357.545074 476.117188,372.420776 487.715393,384.904419 
	C507.130920,405.802063 545.347839,407.246399 566.796997,393.372162 
	C568.226440,392.447510 569.775879,391.708191 571.704956,390.641998 
	C571.704956,399.178253 572.521301,406.934143 571.456238,414.422455 
	C570.543579,420.839569 568.654053,427.730286 565.132996,433.044250 
	C556.070312,446.721527 541.825012,448.511047 526.950073,446.548279 
	C515.919678,445.092773 507.342346,438.533112 499.576904,431.058960 
	C496.117371,427.729218 493.417847,427.954559 490.301849,431.271667 
	C486.653046,435.155945 482.837738,438.884674 479.067322,442.653534 
	C476.317749,445.401947 475.976898,448.027924 479.247040,450.644653 
	C483.015442,453.660065 486.746948,456.721588 490.493622,459.764099 
	C513.739319,478.640747 550.099243,477.046753 571.337158,464.873138 
M346.662262,430.814667 
	C343.811127,427.552429 341.125702,427.933380 338.269043,430.946899 
	C334.373199,435.056610 330.376770,439.077698 326.289032,442.996552 
	C323.452454,445.715973 323.763580,447.982849 326.507416,450.549774 
	C343.683350,466.618164 363.371429,475.942688 387.506775,473.876434 
	C402.446472,472.597412 416.374054,468.683228 427.788452,458.474396 
	C442.166992,445.614594 447.404572,428.623108 447.964355,410.093353 
	C448.522644,391.612579 448.194489,373.104187 448.205872,354.607880 
	C448.225464,322.780182 448.146271,290.952240 448.275696,259.125061 
	C448.293335,254.789413 446.812317,253.036041 442.488892,253.248230 
	C438.333313,253.452148 434.159271,253.274384 429.993347,253.273926 
	C420.846405,253.272888 420.846405,253.275345 418.186493,261.994965 
	C406.832642,254.760147 394.623535,250.903030 381.093597,250.523834 
	C358.246338,249.883514 339.996368,258.126373 327.650085,277.459534 
	C310.958221,303.597473 309.312500,331.798462 319.855255,360.312134 
	C333.786743,397.991028 367.947144,409.128082 402.749237,398.750031 
	C408.205688,397.122894 413.196320,393.933746 419.113953,391.129700 
	C419.297668,402.499939 420.407043,413.565918 416.997681,424.385773 
	C414.329498,432.853485 409.272949,439.422028 401.020477,443.230377 
	C392.255280,447.275391 383.049988,448.155090 373.683624,446.469727 
	C363.123779,444.569672 354.904877,438.309570 346.662262,430.814667 
M163.023651,269.511627 
	C166.414261,266.311615 169.949387,263.245758 173.114365,259.836273 
	C174.172989,258.695862 174.878021,256.566162 174.602097,255.104309 
	C174.445145,254.272751 171.987473,253.393005 170.549698,253.365005 
	C162.054993,253.199570 153.541962,253.006531 145.065506,253.430573 
	C142.338608,253.566986 139.057312,254.889633 137.130676,256.787384 
	C123.374916,270.336914 109.913971,284.185455 96.336884,297.916779 
	C91.652687,302.654205 86.904846,307.328674 82.186073,312.031891 
	C81.012756,308.838959 81.012169,306.376801 81.012840,303.914642 
	C81.023293,265.423981 81.042191,226.933319 81.039322,188.442657 
	C81.038490,177.239151 81.867996,178.060562 70.890724,178.066437 
	C67.224983,178.068390 63.559193,178.069534 59.893501,178.053207 
	C51.999989,178.018051 51.996246,178.013306 51.996635,186.167587 
	C51.999844,252.984726 52.004608,319.801849 52.008652,386.618988 
	C52.008804,389.118347 52.101959,391.622284 51.982281,394.115967 
	C51.813457,397.633789 53.135815,399.325378 56.897461,399.216888 
	C63.224049,399.034424 69.563667,399.014374 75.889549,399.202881 
	C79.819046,399.319977 81.118294,397.753693 81.072960,393.885040 
	C80.914856,380.390289 80.998375,366.892242 81.064720,353.395813 
	C81.072655,351.780670 80.973618,349.654114 81.891685,348.643707 
	C85.645706,344.512024 89.775192,340.721558 93.830910,336.742157 
	C94.861145,337.707947 95.403740,338.099976 95.801147,338.605988 
	C110.601006,357.451447 125.341103,376.344238 140.250610,395.102448 
	C141.672821,396.891754 144.089859,398.908936 146.134048,399.009369 
	C155.096115,399.449707 164.092224,399.305359 173.072678,399.163361 
	C174.687134,399.137848 176.285980,398.125641 177.892029,397.568970 
	C177.224686,395.927765 176.898880,394.013428 175.838028,392.686920 
	C163.056152,376.704102 150.148285,360.822113 137.309891,344.884308 
	C129.813721,335.578430 122.383324,326.219604 114.587761,316.464661 
	C130.750946,300.801544 146.635971,285.407928 163.023651,269.511627 
M784.827576,262.636597 
	C771.105347,253.103714 755.750427,250.065170 739.316162,250.914200 
	C725.963623,251.604019 713.777283,255.660980 703.159729,263.660492 
	C683.153870,278.733368 673.832886,299.351715 673.475464,324.079437 
	C673.113220,349.140991 681.991211,370.225250 701.607727,386.349365 
	C730.132874,409.795990 774.765137,406.468170 802.810974,386.309814 
	C805.852844,384.123413 806.143921,381.983734 803.574036,379.373474 
	C799.134949,374.864594 794.594604,370.451508 790.266418,365.838928 
	C787.962097,363.383209 785.918579,363.481110 783.327515,365.324829 
	C775.546204,370.861664 766.751770,373.941528 757.298401,374.519318 
	C738.134216,375.690674 721.678040,370.354218 710.880737,353.256134 
	C707.906128,348.545715 705.768738,343.321533 706.078491,336.825226 
	C708.279297,336.825226 710.073730,336.825714 711.868103,336.825134 
	C722.859863,336.821625 733.851685,336.816254 744.843445,336.814606 
	C765.827759,336.811462 786.812134,336.810211 807.796448,336.808777 
	C810.905151,336.808594 813.657532,336.849182 814.135559,332.441406 
	C817.216980,304.027924 808.210083,280.716278 784.827576,262.636597 
M298.054047,385.480499 
	C298.011627,357.670868 298.337616,329.854218 297.806885,302.053894 
	C297.402679,280.880585 288.402802,264.185364 268.138336,255.830780 
	C240.186066,244.306717 214.395615,251.027023 190.195892,267.036255 
	C187.485321,268.829437 187.497574,271.247864 189.504578,273.897827 
	C192.415344,277.741089 195.069443,281.777893 197.865234,285.709229 
	C201.571182,290.920380 202.028244,290.957611 207.352951,287.405365 
	C219.397736,279.369995 232.664169,275.786530 247.107681,276.846863 
	C258.586426,277.689514 268.744354,288.778961 269.146362,300.260345 
	C269.281952,304.132233 267.867615,305.603058 264.175537,305.935242 
	C258.386322,306.456085 252.590729,307.097107 246.862747,308.069519 
	C232.105087,310.574951 217.308319,313.020355 204.005234,320.565674 
	C181.839951,333.137421 175.173340,360.144043 189.729980,381.127441 
	C202.841003,400.027008 222.208389,404.494080 243.596497,401.299866 
	C252.110550,400.028351 260.240112,396.182220 268.575958,393.498108 
	C267.862457,399.198242 271.917938,399.564362 276.738770,399.194946 
	C279.553070,398.979279 282.398193,399.194733 285.228668,399.156830 
	C299.710419,398.963043 297.942688,401.048492 298.054047,385.480499 
M624.965759,306.500000 
	C624.968201,335.482208 625.040344,364.464752 624.897888,393.446259 
	C624.876526,397.797424 626.285767,399.450500 630.661499,399.221191 
	C635.977051,398.942627 641.318176,399.159058 646.648193,399.146057 
	C654.046631,399.127991 654.043091,399.121887 654.043030,391.605316 
	C654.042542,325.645996 654.043762,259.686707 654.043030,193.727386 
	C654.042969,190.063095 654.013794,186.398712 654.029236,182.734512 
	C654.043335,179.404861 652.498779,177.954132 649.097351,178.048691 
	C643.604919,178.201370 638.105164,178.082031 632.608643,178.102982 
	C625.100586,178.131622 624.966064,178.250626 624.964722,185.573975 
	C624.957458,225.549316 624.962585,265.524658 624.965759,306.500000 
z"/>
<path fill="#27BEFA" opacity="1.000000" stroke="none" 
	d="
M571.011047,465.041199 
	C550.099243,477.046753 513.739319,478.640747 490.493622,459.764099 
	C486.746948,456.721588 483.015442,453.660065 479.247040,450.644653 
	C475.976898,448.027924 476.317749,445.401947 479.067322,442.653534 
	C482.837738,438.884674 486.653046,435.155945 490.301849,431.271667 
	C493.417847,427.954559 496.117371,427.729218 499.576904,431.058960 
	C507.342346,438.533112 515.919678,445.092773 526.950073,446.548279 
	C541.825012,448.511047 556.070312,446.721527 565.132996,433.044250 
	C568.654053,427.730286 570.543579,420.839569 571.456238,414.422455 
	C572.521301,406.934143 571.704956,399.178253 571.704956,390.641998 
	C569.775879,391.708191 568.226440,392.447510 566.796997,393.372162 
	C545.347839,407.246399 507.130920,405.802063 487.715393,384.904419 
	C476.117188,372.420776 469.035797,357.545074 467.362610,340.775482 
	C465.377563,320.880066 466.808411,301.341888 476.842255,283.051422 
	C489.309082,260.325897 510.860962,248.648895 536.741028,250.594040 
	C549.259277,251.534897 560.362976,255.528229 570.772095,261.847900 
	C571.236023,261.535583 571.685181,261.394928 571.718628,261.187439 
	C572.997192,253.241882 572.992065,253.235794 581.348145,253.242218 
	C585.847229,253.245667 590.356445,253.466537 594.842590,253.233124 
	C599.663757,252.982285 601.155029,254.968445 601.134521,259.736847 
	C600.978210,296.063019 601.153625,332.390594 601.008118,368.716858 
	C600.942078,385.194458 601.374512,401.766296 599.789734,418.121857 
	C597.878723,437.844177 589.303833,454.456818 571.011047,465.041199 
M522.360474,280.697418 
	C509.936035,283.737335 502.696960,292.109009 499.264557,303.921234 
	C495.432495,317.109009 495.116425,330.654480 498.383270,343.890564 
	C499.966614,350.305908 502.817413,357.112488 507.072235,362.030975 
	C519.330017,376.200531 546.442810,378.152222 561.452942,366.743866 
	C568.392090,361.469818 572.598816,354.986572 572.129822,345.510803 
	C571.504456,332.877960 571.544128,320.169464 572.128540,307.531891 
	C572.680969,295.585236 566.570374,288.328400 556.800476,283.614288 
	C546.106628,278.454437 534.700134,277.942505 522.360474,280.697418 
z"/>
<path fill="#27BDF9" opacity="1.000000" stroke="none" 
	d="
M346.950958,431.022339 
	C354.904877,438.309570 363.123779,444.569672 373.683624,446.469727 
	C383.049988,448.155090 392.255280,447.275391 401.020477,443.230377 
	C409.272949,439.422028 414.329498,432.853485 416.997681,424.385773 
	C420.407043,413.565918 419.297668,402.499939 419.113953,391.129700 
	C413.196320,393.933746 408.205688,397.122894 402.749237,398.750031 
	C367.947144,409.128082 333.786743,397.991028 319.855255,360.312134 
	C309.312500,331.798462 310.958221,303.597473 327.650085,277.459534 
	C339.996368,258.126373 358.246338,249.883514 381.093597,250.523834 
	C394.623535,250.903030 406.832642,254.760147 418.186493,261.994965 
	C420.846405,253.275345 420.846405,253.272888 429.993347,253.273926 
	C434.159271,253.274384 438.333313,253.452148 442.488892,253.248230 
	C446.812317,253.036041 448.293335,254.789413 448.275696,259.125061 
	C448.146271,290.952240 448.225464,322.780182 448.205872,354.607880 
	C448.194489,373.104187 448.522644,391.612579 447.964355,410.093353 
	C447.404572,428.623108 442.166992,445.614594 427.788452,458.474396 
	C416.374054,468.683228 402.446472,472.597412 387.506775,473.876434 
	C363.371429,475.942688 343.683350,466.618164 326.507416,450.549774 
	C323.763580,447.982849 323.452454,445.715973 326.289032,442.996552 
	C330.376770,439.077698 334.373199,435.056610 338.269043,430.946899 
	C341.125702,427.933380 343.811127,427.552429 346.950958,431.022339 
M370.273804,280.552368 
	C358.819397,283.541595 351.601013,291.009735 347.883240,302.012665 
	C343.520386,314.924622 343.240875,328.123444 345.586548,341.437805 
	C347.834137,354.195221 353.228027,365.333160 365.594666,370.647888 
	C380.795563,377.180634 395.992645,375.388153 409.848877,366.372345 
	C416.718628,361.902405 420.291626,355.273865 419.961273,346.480347 
	C419.479858,333.667206 419.769867,320.824677 419.754150,307.994659 
	C419.739288,295.845764 413.919098,287.260895 402.460114,282.725983 
	C392.259460,278.688995 381.765076,278.153992 370.273804,280.552368 
z"/>
<path fill="#27BDF9" opacity="1.000000" stroke="none" 
	d="
M162.772324,269.763000 
	C146.635971,285.407928 130.750946,300.801544 114.587761,316.464661 
	C122.383324,326.219604 129.813721,335.578430 137.309891,344.884308 
	C150.148285,360.822113 163.056152,376.704102 175.838028,392.686920 
	C176.898880,394.013428 177.224686,395.927765 177.892029,397.568970 
	C176.285980,398.125641 174.687134,399.137848 173.072678,399.163361 
	C164.092224,399.305359 155.096115,399.449707 146.134048,399.009369 
	C144.089859,398.908936 141.672821,396.891754 140.250610,395.102448 
	C125.341103,376.344238 110.601006,357.451447 95.801147,338.605988 
	C95.403740,338.099976 94.861145,337.707947 93.830910,336.742157 
	C89.775192,340.721558 85.645706,344.512024 81.891685,348.643707 
	C80.973618,349.654114 81.072655,351.780670 81.064720,353.395813 
	C80.998375,366.892242 80.914856,380.390289 81.072960,393.885040 
	C81.118294,397.753693 79.819046,399.319977 75.889549,399.202881 
	C69.563667,399.014374 63.224049,399.034424 56.897461,399.216888 
	C53.135815,399.325378 51.813457,397.633789 51.982281,394.115967 
	C52.101959,391.622284 52.008804,389.118347 52.008652,386.618988 
	C52.004608,319.801849 51.999844,252.984726 51.996635,186.167587 
	C51.996246,178.013306 51.999989,178.018051 59.893501,178.053207 
	C63.559193,178.069534 67.224983,178.068390 70.890724,178.066437 
	C81.867996,178.060562 81.038490,177.239151 81.039322,188.442657 
	C81.042191,226.933319 81.023293,265.423981 81.012840,303.914642 
	C81.012169,306.376801 81.012756,308.838959 82.186073,312.031891 
	C86.904846,307.328674 91.652687,302.654205 96.336884,297.916779 
	C109.913971,284.185455 123.374916,270.336914 137.130676,256.787384 
	C139.057312,254.889633 142.338608,253.566986 145.065506,253.430573 
	C153.541962,253.006531 162.054993,253.199570 170.549698,253.365005 
	C171.987473,253.393005 174.445145,254.272751 174.602097,255.104309 
	C174.878021,256.566162 174.172989,258.695862 173.114365,259.836273 
	C169.949387,263.245758 166.414261,266.311615 162.772324,269.763000 
z"/>
<path fill="#28BEF9" opacity="1.000000" stroke="none" 
	d="
M785.106750,262.861267 
	C808.210083,280.716278 817.216980,304.027924 814.135559,332.441406 
	C813.657532,336.849182 810.905151,336.808594 807.796448,336.808777 
	C786.812134,336.810211 765.827759,336.811462 744.843445,336.814606 
	C733.851685,336.816254 722.859863,336.821625 711.868103,336.825134 
	C710.073730,336.825714 708.279297,336.825226 706.078491,336.825226 
	C705.768738,343.321533 707.906128,348.545715 710.880737,353.256134 
	C721.678040,370.354218 738.134216,375.690674 757.298401,374.519318 
	C766.751770,373.941528 775.546204,370.861664 783.327515,365.324829 
	C785.918579,363.481110 787.962097,363.383209 790.266418,365.838928 
	C794.594604,370.451508 799.134949,374.864594 803.574036,379.373474 
	C806.143921,381.983734 805.852844,384.123413 802.810974,386.309814 
	C774.765137,406.468170 730.132874,409.795990 701.607727,386.349365 
	C681.991211,370.225250 673.113220,349.140991 673.475464,324.079437 
	C673.832886,299.351715 683.153870,278.733368 703.159729,263.660492 
	C713.777283,255.660980 725.963623,251.604019 739.316162,250.914200 
	C755.750427,250.065170 771.105347,253.103714 785.106750,262.861267 
M745.500000,310.925415 
	C757.899597,310.925415 770.299194,310.925415 782.606995,310.925415 
	C784.094177,295.150909 767.755981,277.518646 751.097168,276.023346 
	C727.964417,273.946991 707.524841,289.392883 705.715759,310.923706 
	C718.674194,310.923706 731.587097,310.923706 745.500000,310.925415 
z"/>
<path fill="#27BDF9" opacity="1.000000" stroke="none" 
	d="
M298.051636,385.975281 
	C297.942688,401.048492 299.710419,398.963043 285.228668,399.156830 
	C282.398193,399.194733 279.553070,398.979279 276.738770,399.194946 
	C271.917938,399.564362 267.862457,399.198242 268.575958,393.498108 
	C260.240112,396.182220 252.110550,400.028351 243.596497,401.299866 
	C222.208389,404.494080 202.841003,400.027008 189.729980,381.127441 
	C175.173340,360.144043 181.839951,333.137421 204.005234,320.565674 
	C217.308319,313.020355 232.105087,310.574951 246.862747,308.069519 
	C252.590729,307.097107 258.386322,306.456085 264.175537,305.935242 
	C267.867615,305.603058 269.281952,304.132233 269.146362,300.260345 
	C268.744354,288.778961 258.586426,277.689514 247.107681,276.846863 
	C232.664169,275.786530 219.397736,279.369995 207.352951,287.405365 
	C202.028244,290.957611 201.571182,290.920380 197.865234,285.709229 
	C195.069443,281.777893 192.415344,277.741089 189.504578,273.897827 
	C187.497574,271.247864 187.485321,268.829437 190.195892,267.036255 
	C214.395615,251.027023 240.186066,244.306717 268.138336,255.830780 
	C288.402802,264.185364 297.402679,280.880585 297.806885,302.053894 
	C298.337616,329.854218 298.011627,357.670868 298.051636,385.975281 
M268.961975,335.863647 
	C268.828369,334.455872 268.694733,333.048096 268.545837,331.479156 
	C263.590851,332.033142 259.120209,332.384888 254.698074,333.056183 
	C243.190063,334.803192 231.560944,336.238983 221.173828,342.080383 
	C215.025604,345.537903 210.681107,350.373383 211.063705,357.993835 
	C211.438995,365.468414 215.829803,370.102570 222.285950,373.143188 
	C235.306900,379.275543 256.562439,375.717529 266.617401,365.464264 
	C267.927246,364.128632 268.667175,361.719482 268.737671,359.773743 
	C269.014893,352.118073 268.919098,344.448944 268.961975,335.863647 
z"/>
<path fill="#27BCF9" opacity="1.000000" stroke="none" 
	d="
M624.964600,306.000000 
	C624.962585,265.524658 624.957458,225.549316 624.964722,185.573975 
	C624.966064,178.250626 625.100586,178.131622 632.608643,178.102982 
	C638.105164,178.082031 643.604919,178.201370 649.097351,178.048691 
	C652.498779,177.954132 654.043335,179.404861 654.029236,182.734512 
	C654.013794,186.398712 654.042969,190.063095 654.043030,193.727386 
	C654.043762,259.686707 654.042542,325.645996 654.043030,391.605316 
	C654.043091,399.121887 654.046631,399.127991 646.648193,399.146057 
	C641.318176,399.159058 635.977051,398.942627 630.661499,399.221191 
	C626.285767,399.450500 624.876526,397.797424 624.897888,393.446259 
	C625.040344,364.464752 624.968201,335.482208 624.964600,306.000000 
z"/>
<path fill="#FAFEFE" opacity="1.000000" stroke="none" 
	d="
M522.752075,280.565491 
	C534.700134,277.942505 546.106628,278.454437 556.800476,283.614288 
	C566.570374,288.328400 572.680969,295.585236 572.128540,307.531891 
	C571.544128,320.169464 571.504456,332.877960 572.129822,345.510803 
	C572.598816,354.986572 568.392090,361.469818 561.452942,366.743866 
	C546.442810,378.152222 519.330017,376.200531 507.072235,362.030975 
	C502.817413,357.112488 499.966614,350.305908 498.383270,343.890564 
	C495.116425,330.654480 495.432495,317.109009 499.264557,303.921234 
	C502.696960,292.109009 509.936035,283.737335 522.752075,280.565491 
z"/>
<path fill="#F9FEFE" opacity="1.000000" stroke="none" 
	d="
M370.675446,280.443542 
	C381.765076,278.153992 392.259460,278.688995 402.460114,282.725983 
	C413.919098,287.260895 419.739288,295.845764 419.754150,307.994659 
	C419.769867,320.824677 419.479858,333.667206 419.961273,346.480347 
	C420.291626,355.273865 416.718628,361.902405 409.848877,366.372345 
	C395.992645,375.388153 380.795563,377.180634 365.594666,370.647888 
	C353.228027,365.333160 347.834137,354.195221 345.586548,341.437805 
	C343.240875,328.123444 343.520386,314.924622 347.883240,302.012665 
	C351.601013,291.009735 358.819397,283.541595 370.675446,280.443542 
z"/>
<path fill="#F5FEFE" opacity="1.000000" stroke="none" 
	d="
M745.000000,310.924561 
	C731.587097,310.923706 718.674194,310.923706 705.715759,310.923706 
	C707.524841,289.392883 727.964417,273.946991 751.097168,276.023346 
	C767.755981,277.518646 784.094177,295.150909 782.606995,310.925415 
	C770.299194,310.925415 757.899597,310.925415 745.000000,310.924561 
z"/>
<path fill="#F6FEFE" opacity="1.000000" stroke="none" 
	d="
M268.961914,336.324219 
	C268.919098,344.448944 269.014893,352.118073 268.737671,359.773743 
	C268.667175,361.719482 267.927246,364.128632 266.617401,365.464264 
	C256.562439,375.717529 235.306900,379.275543 222.285950,373.143188 
	C215.829803,370.102570 211.438995,365.468414 211.063705,357.993835 
	C210.681107,350.373383 215.025604,345.537903 221.173828,342.080383 
	C231.560944,336.238983 243.190063,334.803192 254.698074,333.056183 
	C259.120209,332.384888 263.590851,332.033142 268.545837,331.479156 
	C268.694733,333.048096 268.828369,334.455872 268.961914,336.324219 
z"/>
</svg>