<?xml version="1.0" encoding="UTF-8"?>
<svg xmlns="http://www.w3.org/2000/svg" xml:space="preserve" width="512px" height="512px" version="1.1" style="shape-rendering:geometricPrecision; text-rendering:geometricPrecision; image-rendering:optimizeQuality; fill-rule:evenodd; clip-rule:evenodd"
viewBox="0 0 512 512"
 xmlns:xlink="http://www.w3.org/1999/xlink"
 aria-label="Rust"
 role="img">
 <defs>
  <style type="text/css">
   <![CDATA[
    .fil1 {fill:#252422}
    .fil0 {fill:url(#id0)}
   ]]>
  </style>
  <linearGradient id="id0" gradientUnits="userSpaceOnUse" x1="0" y1="221.46" x2="512" y2="228.26">
   <stop offset="0" style="stop-opacity:1; stop-color:white"/>
   <stop offset="1" style="stop-opacity:1; stop-color:white"/>
  </linearGradient>
 </defs>
 <g id="Layer_1">
  <metadata id="Layer0"/>
  <path class="fil0" d="M76.8 0l358.4 0c42.41,0 76.8,48.64 76.8,108.62l0 294.76c0,59.98 -34.39,108.62 -76.8,108.62l-358.4 0c-42.41,0 -76.8,-48.64 -76.8,-108.62l0 -294.76c0,-59.98 34.39,-108.62 76.8,-108.62z"/>
  <g id="_2464660609712">
   <path class="fil1" d="M422.67 192.71c3.41,-7.67 12.37,-11.17 20.04,-7.75 7.66,3.42 11.12,12.42 7.75,20.08 -3.42,7.71 -12.38,11.17 -20.04,7.75 -7.71,-3.41 -11.17,-12.37 -7.75,-20.08l0 0zm-177.96 -143.21c6.08,-5.79 15.71,-5.58 21.5,0.5 5.79,6.08 5.58,15.71 -0.5,21.54 -6.08,5.79 -15.67,5.58 -21.5,-0.5 -5.79,-6.12 -5.59,-15.75 0.5,-21.54l0 0zm198.46 204.88c0,4.66 -0.17,9.29 -0.5,13.91l-19.21 0c-1.92,0 -2.71,1.25 -2.71,3.13l0 8.83c0,20.75 -11.71,25.29 -21.96,26.42 -9.75,1.08 -20.58,-4.09 -21.91,-10.09 -5.75,-32.41 -15.38,-39.33 -30.55,-51.29 18.84,-11.96 38.42,-29.58 38.42,-53.16 0,-25.5 -17.46,-41.55 -29.37,-49.42 -16.71,-11 -35.21,-13.21 -40.21,-13.21l-198.63 0c26.92,-30.04 63.42,-51.33 104.71,-59.08l23.42 24.54c5.29,5.54 14.04,5.75 19.58,0.46l26.21 -25.05c54.87,10.21 101.37,44.38 128.12,91.25l-17.91 40.5c-3.09,7 0.08,15.21 7.04,18.34l34.54 15.33c0.63,6.08 0.92,12.29 0.92,18.59l0 0zm-229.59 -31.76l0 -35.25 63.17 0c3.25,0 23.04,3.8 23.04,18.55 0,12.29 -15.17,16.66 -27.62,16.66l-58.59 0.04 0 0 0 0zm-143.7 11.63l32.75 -14.54c7,-3.13 10.16,-11.29 7.04,-18.34l-6.75 -15.25 26.54 0 0 119.59 -53.5 0c-4.63,-16.33 -7.13,-33.54 -7.13,-51.33 -0.04,-6.84 0.34,-13.55 1.05,-20.13l0 0zm17.83 -42.29c3.42,7.66 -0.04,16.71 -7.75,20.08 -7.67,3.42 -16.67,-0.04 -20.04,-7.75 -3.42,-7.71 0.04,-16.66 7.75,-20.08 7.66,-3.42 16.66,0.08 20.04,7.75l0 0zm58.04 235.33c-8.21,1.79 -16.29,-3.46 -18.04,-11.66 -1.75,-8.26 3.46,-16.34 11.67,-18.09 8.2,-1.75 16.29,3.46 18.04,11.71 1.75,8.17 -3.46,16.29 -11.67,18.04l0 0zm211.58 -48.67c-7.5,-1.62 -14.87,3.17 -16.46,10.67l-7.62 35.63c-23.54,10.7 -49.71,16.62 -77.25,16.62 -28.17,0 -54.87,-6.25 -78.88,-17.37l-7.62 -35.63c-1.62,-7.5 -8.96,-12.25 -16.46,-10.67l-31.46 6.75c-5.83,-6 -11.25,-12.41 -16.25,-19.16l153 0c1.75,0 2.88,-0.34 2.88,-1.88l0 -54.12c0,-1.58 -1.17,-1.88 -2.88,-1.88l-44.75 0 0 -34.29 48.38 0c4.42,0 23.62,1.25 29.75,25.79 1.91,7.55 6.12,32.09 9.04,39.96 2.88,8.83 14.58,26.42 27.08,26.42l76.21 0c0.88,0 1.79,-0.09 2.75,-0.29 -5.29,7.16 -11.08,14 -17.33,20.33l-32.13 -6.88 0 0zm7.29 49.42c-8.2,-1.79 -13.41,-9.87 -11.66,-18.08 1.75,-8.21 9.83,-13.46 18.04,-11.67 8.21,1.75 13.46,9.88 11.67,18.08 -1.75,8.17 -9.84,13.42 -18.05,11.67l0 0zm143.88 -178.33l-21.5 -13.29c-0.17,-2.09 -0.37,-4.17 -0.62,-6.25l18.45 -17.21c1.88,-1.75 2.71,-4.34 2.21,-6.84 -0.5,-2.5 -2.25,-4.58 -4.66,-5.5l-23.63 -8.83c-0.58,-2.04 -1.21,-4.08 -1.83,-6.08l14.71 -20.46c1.49,-2.08 1.79,-4.79 0.83,-7.17 -0.96,-2.37 -3.13,-4.04 -5.63,-4.46l-24.91 -4.04c-0.96,-1.87 -1.96,-3.75 -3,-5.58l10.46 -22.96c1.08,-2.33 0.83,-5.04 -0.59,-7.17 -1.41,-2.12 -3.83,-3.37 -6.41,-3.29l-25.3 0.88c-1.29,-1.63 -2.62,-3.25 -4,-4.84l5.8 -24.62c0.58,-2.5 -0.17,-5.13 -1.96,-6.92 -1.79,-1.79 -4.42,-2.54 -6.92,-1.95l-24.62 5.79c-1.59,-1.34 -3.21,-2.67 -4.84,-4l0.88 -25.29c0.08,-2.55 -1.17,-5 -3.29,-6.42 -2.13,-1.42 -4.84,-1.63 -7.17,-0.58l-22.96 10.45c-1.83,-1 -3.71,-2.04 -5.58,-3l-4.04 -24.91c-0.42,-2.54 -2.09,-4.67 -4.46,-5.63 -2.38,-1 -5.09,-0.66 -7.17,0.84l-20.46 14.75c-2,-0.63 -4.04,-1.25 -6.08,-1.84l-8.79 -23.71c-0.88,-2.41 -2.96,-4.16 -5.5,-4.66 -2.5,-0.5 -5.09,0.33 -6.84,2.21l-17.25 18.5c-2.08,-0.25 -4.16,-0.46 -6.25,-0.63l-13.29 -21.5c-1.33,-2.17 -3.71,-3.5 -6.29,-3.5 -2.58,0 -4.96,1.33 -6.29,3.5l-13.29 21.5c-2.09,0.17 -4.17,0.37 -6.25,0.62l-17.25 -18.49c-1.75,-1.88 -4.34,-2.71 -6.84,-2.21 -2.5,0.5 -4.58,2.25 -5.5,4.66l-8.83 23.63c-2.04,0.58 -4.08,1.21 -6.08,1.83l-20.46 -14.75c-2.08,-1.5 -4.79,-1.83 -7.17,-0.83 -2.37,0.96 -4.04,3.12 -4.46,5.62l-4.04 24.92c-1.87,0.96 -3.75,1.96 -5.58,3l-22.96 -10.46c-2.33,-1.08 -5.04,-0.83 -7.17,0.59 -2.12,1.41 -3.37,3.83 -3.29,6.41l0.88 25.29c-1.63,1.29 -3.25,2.63 -4.84,4l-24.62 -5.79c-2.5,-0.58 -5.13,0.17 -6.92,1.96 -1.83,1.83 -2.54,4.42 -1.96,6.92l5.8 24.62c-1.34,1.58 -2.67,3.21 -4,4.83l-25.3 -0.87c-2.54,-0.08 -5,1.17 -6.41,3.29 -1.42,2.13 -1.63,4.83 -0.59,7.17l10.46 22.96c-1,1.83 -2.04,3.7 -3,5.58l-24.91 4.04c-2.55,0.42 -4.67,2.08 -5.63,4.46 -0.96,2.37 -0.67,5.08 0.83,7.17l14.75 20.45c-0.62,2 -1.25,4.05 -1.83,6.09l-23.67 8.87c-2.41,0.88 -4.16,2.96 -4.66,5.5 -0.5,2.5 0.33,5.09 2.21,6.84l18.45 17.2c-0.2,2.09 -0.41,4.17 -0.62,6.26l-21.5 13.29c-2.13,1.41 -3.46,3.79 -3.46,6.33 0,2.58 1.33,4.96 3.5,6.29l21.5 13.29c0.17,2.09 0.37,4.17 0.62,6.25l-18.45 17.25c-1.88,1.75 -2.71,4.34 -2.21,6.84 0.5,2.5 2.25,4.58 4.66,5.5l23.63 8.83c0.58,2.04 1.21,4.08 1.83,6.08l-14.75 20.46c-1.5,2.08 -1.83,4.79 -0.83,7.17 1,2.37 3.12,4.08 5.67,4.46l24.87 4.08c0.96,1.87 1.96,3.75 3,5.58l-10.46 22.96c-1.08,2.33 -0.83,5.04 0.59,7.17 1.41,2.12 3.87,3.37 6.41,3.29l25.25 -0.88c1.34,1.63 2.63,3.25 4,4.84l-5.79 24.62c-0.58,2.5 0.17,5.09 1.96,6.92 1.79,1.83 4.42,2.54 6.92,1.96l24.62 -5.79c1.58,1.37 3.21,2.66 4.83,4l-0.87 25.29c-0.08,2.54 1.17,5 3.29,6.41 2.13,1.42 4.83,1.63 7.17,0.59l22.96 -10.46c1.83,1.04 3.7,2.04 5.58,3l4.04 24.87c0.42,2.55 2.08,4.67 4.46,5.67 2.37,1 5.08,0.67 7.17,-0.83l20.45 -14.75c2,0.62 4.05,1.25 6.09,1.87l8.83 23.63c0.88,2.41 2.96,4.16 5.5,4.66 2.5,0.5 5.08,-0.33 6.83,-2.2l17.25 -18.46c2.09,0.25 4.17,0.46 6.25,0.62l13.3 21.5c1.33,2.17 3.7,3.5 6.29,3.5 2.58,0 4.96,-1.33 6.29,-3.5l13.29 -21.5c2.08,-0.16 4.17,-0.37 6.25,-0.62l17.25 18.46c1.75,1.87 4.33,2.7 6.83,2.2 2.5,-0.5 4.59,-2.25 5.5,-4.66l8.84 -23.63c2.04,-0.58 4.08,-1.21 6.08,-1.87l20.46 14.75c2.08,1.5 4.79,1.79 7.17,0.83 2.37,-0.96 4.04,-3.12 4.45,-5.67l4.05 -24.87c1.87,-0.96 3.75,-2 5.58,-3l22.96 10.46c2.33,1.08 5.04,0.83 7.16,-0.59 2.13,-1.41 3.38,-3.83 3.3,-6.41l-0.88 -25.29c1.63,-1.3 3.25,-2.63 4.83,-4l24.63 5.79c2.5,0.58 5.12,-0.13 6.92,-1.96 1.83,-1.83 2.54,-4.42 1.95,-6.92l-5.79 -24.62c1.34,-1.59 2.67,-3.21 4,-4.84l25.29 0.88c2.55,0.08 5,-1.17 6.42,-3.29 1.42,-2.13 1.67,-4.84 0.58,-7.17l-10.45 -22.96c1.04,-1.87 2.04,-3.71 3,-5.58l24.91 -4.04c2.54,-0.42 4.67,-2.09 5.63,-4.46 1,-2.37 0.66,-5.08 -0.84,-7.17l-14.75 -20.46c0.63,-2.04 1.25,-4.04 1.84,-6.08l23.62 -8.83c2.42,-0.92 4.17,-2.96 4.67,-5.5 0.5,-2.5 -0.33,-5.09 -2.21,-6.83l-18.46 -17.25c0.21,-2.09 0.42,-4.17 0.63,-6.26l21.5 -13.29c2.16,-1.33 3.5,-3.71 3.5,-6.29 0.04,-2.58 -1.29,-4.96 -3.46,-6.33l0 0z"/>
  </g>
 </g>
</svg>
