<?xml version="1.0" encoding="UTF-8"?>
<svg xmlns="http://www.w3.org/2000/svg" xml:space="preserve" width="512px" height="512px" version="1.1" style="shape-rendering:geometricPrecision; text-rendering:geometricPrecision; image-rendering:optimizeQuality; fill-rule:evenodd; clip-rule:evenodd"
viewBox="0 0 512 512"
 xmlns:xlink="http://www.w3.org/1999/xlink"
 aria-label="X"
 role="img">
 <defs>
  <style type="text/css">
   <![CDATA[
    .fil0 {fill:white}
    .fil1 {fill:black;fill-rule:nonzero}
   ]]>
  </style>
 </defs>
 <g id="Layer_1">
  <metadata id="Layer0"/>
  <path class="fil0" d="M475.43 144.35c-5.13,-19.24 -21.8,-34.63 -41.05,-39.77 -43.61,-11.54 -306.59,-12.82 -356.62,0 -19.25,5.14 -35.92,20.53 -41.06,39.77 -11.54,48.75 -12.82,173.19 0,223.22 5.14,19.24 21.81,34.63 41.06,39.76 46.18,12.83 309.16,12.83 356.62,0 19.25,-5.13 35.92,-20.52 41.05,-39.76 11.55,-46.19 11.55,-175.75 0,-223.22z"/>
  <path class="fil1" d="M228.65 4.23c-89.23,9.31 -168.96,68.06 -205.21,151.19 -23.36,53.67 -27.24,115.47 -10.66,172.36 20.49,70.94 73.48,130.87 142.05,160.84 53.67,23.36 115.47,27.25 172.36,10.66 85.16,-24.55 152.21,-94.46 174.21,-181.32 34.37,-136.12 -49.94,-275.31 -186.41,-307.8 -29.97,-7.11 -56.37,-8.98 -86.34,-5.93zm3.38 157.29c21.67,28.78 39.96,52.48 40.64,52.48 0.67,0 23.2,-23.7 49.77,-52.48l48.6 -52.49 27.59 0 -5.92 6.27c-3.39,3.55 -25.4,27.42 -48.93,52.99 -23.54,25.57 -46.56,50.45 -51.14,55.03l-8.12 8.63 63.49 84.49c34.88,46.55 63.49,85.15 63.49,85.84 0,0.85 -20.82,1.35 -46.06,1.35l-46.21 -0.17 -43.01 -57.56c-29.63,-39.79 -43.51,-56.9 -44.86,-55.88 -1.02,0.85 -25.07,26.76 -53.5,57.57l-51.64 56.04 -13.05 0c-7.27,0 -13.2,-0.35 -13.2,-0.85 0,-0.5 26.92,-29.97 59.76,-65.35 32.69,-35.39 59.78,-65.01 60.11,-65.52 0.17,-0.69 -26.75,-37.42 -59.76,-81.61 -33.02,-44.02 -60.11,-80.42 -60.11,-80.77 0,-0.32 20.82,-0.5 46.39,-0.5l46.39 0 39.28 52.49zm0 0z"/>
  <path class="fil1" d="M141.8 131.72c0.67,1.19 43.33,58.41 94.47,126.8l93.11 124.62 20.82 0.17c12.87,0 20.67,-0.68 20.32,-1.69 -0.16,-0.85 -42.66,-58.07 -94.12,-126.98l-93.81 -125.29 -20.99 0c-17.43,0 -20.99,0.35 -19.8,2.37l0 0zm0 0z"/>
 </g>
</svg>
